<svg width="2862" height="979" viewBox="0 0 2862 979" fill="none" xmlns="http://www.w3.org/2000/svg">
<path d="M72 570V9.99996H672V179.6H300.8V214H517.6V362H300.8V400.4H680V570H72ZM829.781 570V9.99996H1432.98V187.6H1058.58V236.4H1267.38V414H1058.58V570H829.781ZM1569.59 570V9.99996H2169.59V179.6H1798.39V214H2015.19V362H1798.39V400.4H2177.59V570H1569.59Z" fill="white"/>
<path d="M223.528 846.784H296.92C312.408 846.784 325.696 845.552 336.784 843.088C347.872 840.448 356.936 836.4 363.976 830.944C371.192 825.312 376.472 818.096 379.816 809.296C383.336 800.496 385.096 789.936 385.096 777.616C385.096 765.472 383.336 755.264 379.816 746.992C376.296 738.544 370.928 731.68 363.712 726.4C356.496 721.12 347.344 717.336 336.256 715.048C325.168 712.76 312.056 711.616 296.92 711.616H223.528V846.784ZM72.52 964V594.4H340.48C370.4 594.4 397.416 598.184 421.528 605.752C445.816 613.32 466.496 624.76 483.568 640.072C500.816 655.384 514.016 674.656 523.168 697.888C532.496 720.944 537.16 748.048 537.16 779.2C537.16 812.288 531.968 840.536 521.584 863.944C511.376 887.352 497.296 906.448 479.344 921.232C461.568 936.016 440.712 946.84 416.776 953.704C393.016 960.568 367.584 964 340.48 964H72.52ZM574.264 964V594.4H725.272V964H574.264ZM772.17 678.88C772.17 643.504 781.938 620.008 801.474 608.392C821.186 596.6 847.674 590.704 880.938 590.704H1099C1132.27 590.704 1158.75 596.6 1178.47 608.392C1198.35 620.008 1208.3 643.504 1208.3 678.88V696.832L1057.29 724.816V702.64H923.178V855.76H1058.87V833.584H991.29V735.904H1209.88V876.352C1209.88 912.96 1200.38 937.336 1181.37 949.48C1162.54 961.624 1135.61 967.696 1100.59 967.696H880.938C845.914 967.696 818.986 961.624 800.154 949.48C781.498 937.16 772.17 912.784 772.17 876.352V678.88ZM1254.46 964V594.4H1405.46V964H1254.46ZM1549.51 964V722.176H1423.85V594.4H1826.19V722.176H1700.52V964H1549.51ZM1767.5 964L1959.17 594.4H2104.37L2296.03 964H2120.21L2099.62 917.536H1946.76L1922.74 964H1767.5ZM1993.49 827.776H2059.75L2029.13 759.136L1993.49 827.776ZM2301.3 964V594.4H2452.31V836.224H2650.83V964H2301.3Z" fill="white"/>
<path d="M2668.35 928.36V862.096C2668.35 846.608 2670.55 836.664 2674.95 832.264C2679.53 827.864 2689.74 825.664 2705.58 825.664H2781.35C2797.36 825.664 2807.57 827.864 2811.97 832.264C2816.55 836.664 2818.83 846.784 2818.83 862.624V928.36C2818.83 944.2 2816.55 954.408 2811.97 958.984C2807.57 963.384 2797.45 965.584 2781.61 965.584H2705.58C2689.56 965.584 2679.35 963.384 2674.95 958.984C2670.55 954.584 2668.35 944.376 2668.35 928.36Z" fill="#FF0000"/>
</svg>
